<svg width="72" height="59" viewBox="0 0 72 59" fill="none" xmlns="http://www.w3.org/2000/svg">
<rect x="17.3879" y="6.77576" width="37.2667" height="33.8788" rx="3.38788" fill="#FF00E5"/>
<g filter="url(#filter0_d_30_9)">
<path d="M24.4808 19.451C24.205 18.6236 23.9292 17.1066 23.9292 17.1066H23.8602C23.8602 17.1066 23.5844 18.6236 23.3776 19.451L22.5501 22.0022H25.2393L24.4808 19.451ZM56.4749 9.72866H37.1681V31.7935H56.4749C57.3712 31.7935 58.1297 31.104 58.1297 30.1386V11.3835C58.1297 10.4871 57.3712 9.72866 56.4749 9.72866ZM54.82 18.003C54.82 18.4856 54.4063 18.8304 53.9926 18.8304H53.1651C52.6825 20.4853 51.6482 22.1401 50.2002 23.6571C50.8207 24.1398 51.4413 24.5535 52.0619 24.8982C52.4066 25.1741 52.5445 25.6567 52.3377 26.0704L51.7861 26.9668C51.5103 27.3805 51.0276 27.5184 50.6139 27.3116C49.7175 26.76 48.959 26.2083 48.2005 25.5878C47.442 26.2083 46.6146 26.76 45.7182 27.3116C45.3045 27.5184 44.8218 27.3805 44.615 26.9668L44.0634 26.0704C43.7876 25.6567 43.9255 25.1741 44.3392 24.8982C44.9598 24.5535 45.5803 24.1398 46.1319 23.6571C45.5803 23.1055 45.0977 22.4849 44.6839 21.9333C44.4081 21.5196 44.546 20.9679 44.9598 20.7611L45.3735 20.4853L45.8561 20.1405C46.2699 19.9337 46.7525 20.0716 46.9594 20.4163C47.3041 20.899 47.7179 21.3817 48.2005 21.8643C49.0969 20.83 49.8554 19.8647 50.2691 18.8304H42.4085C41.9258 18.8304 41.5811 18.4856 41.5811 18.003V16.8997C41.5811 16.486 41.9258 16.0723 42.4085 16.0723H46.8215V14.9691C46.8215 14.5553 47.1662 14.1416 47.6489 14.1416H48.7522C49.1659 14.1416 49.5796 14.5553 49.5796 14.9691V16.0723H53.9926C54.4063 16.0723 54.82 16.486 54.82 16.8997V18.003ZM14 11.3835V30.1386C14 31.104 14.6895 31.7935 15.6549 31.7935H34.9616V9.72866H15.6549C14.6895 9.72866 14 10.4871 14 11.3835ZM17.9993 26.3463L21.9985 14.6243C22.1364 14.3485 22.4122 14.0727 22.757 14.0727H25.0324C25.3772 14.0727 25.722 14.3485 25.7909 14.6243L29.7902 26.3463C29.9281 26.8289 29.5833 27.3805 28.9627 27.3805H27.3768C27.0321 27.3805 26.6873 27.1737 26.6183 26.8289L25.9978 24.6224H21.7917L21.1711 26.8289C21.1021 27.1737 20.7574 27.3805 20.4126 27.3805H18.8267C18.2751 27.3805 17.8614 26.8289 17.9993 26.3463Z" fill="#FAD410"/>
</g>
<defs>
<filter id="filter0_d_30_9" x="0.448484" y="9.72867" width="71.2327" height="49.1679" filterUnits="userSpaceOnUse" color-interpolation-filters="sRGB">
<feFlood flood-opacity="0" result="BackgroundImageFix"/>
<feColorMatrix in="SourceAlpha" type="matrix" values="0 0 0 0 0 0 0 0 0 0 0 0 0 0 0 0 0 0 127 0" result="hardAlpha"/>
<feOffset dy="13.5515"/>
<feGaussianBlur stdDeviation="6.77576"/>
<feComposite in2="hardAlpha" operator="out"/>
<feColorMatrix type="matrix" values="0 0 0 0 0 0 0 0 0 0.148333 0 0 0 0 0.370833 0 0 0 0.52 0"/>
<feBlend mode="normal" in2="BackgroundImageFix" result="effect1_dropShadow_30_9"/>
<feBlend mode="normal" in="SourceGraphic" in2="effect1_dropShadow_30_9" result="shape"/>
</filter>
</defs>
</svg>
